ply
format ascii 1.0
comment Created by Blender 2.80 (sub 75) - www.blender.org, source file: 'Drone.blend'
element vertex 496
property float x
property float y
property float z
property float nx
property float ny
property float nz
property float s
property float t
element face 370
property list uchar uint vertex_indices
end_header
-2.121320 -2.121320 -1.668659 0.000000 0.000000 0.000000 0.430472 0.625000
0.000000 -4.242641 -1.668659 0.000000 0.000000 0.000000 0.430472 0.500000
0.000000 -4.242641 -1.668659 0.000000 0.000000 0.000000 0.430472 0.500000
-2.121320 -2.121320 -1.668659 0.000000 0.000000 0.000000 0.430472 0.625000
2.121320 2.121320 -1.128263 -0.000000 0.000000 -1.000000 0.000000 0.000000
17.121307 0.212132 -1.128264 -0.000000 0.000000 -1.000000 0.000000 0.000000
17.121307 -0.212132 -1.128264 -0.000000 0.000000 -1.000000 0.000000 0.000000
2.121320 -2.121320 -1.128263 -0.000000 0.000000 -1.000000 0.000000 0.000000
0.000000 4.242641 -1.668659 0.000000 0.000000 0.000000 0.680473 0.750000
0.000000 4.242641 -1.668659 0.000000 0.000000 0.000000 0.680473 0.750000
0.000000 4.242641 -1.668659 0.000000 0.000000 0.000000 0.680473 0.750000
0.000000 4.242641 -1.668659 0.000000 0.000000 0.000000 0.680473 0.750000
-4.242641 0.000000 1.668659 0.000000 0.000000 0.000000 0.819527 0.500000
-4.242641 0.000000 -1.128263 0.000000 0.000000 0.000000 0.819527 0.500000
-4.242641 0.000000 -1.128263 0.000000 0.000000 0.000000 0.819527 0.500000
0.000000 -4.242641 -1.128263 0.000000 0.000000 -1.000000 0.569528 0.500000
-7.071068 -11.313709 -1.128263 0.000000 0.000000 -1.000000 0.569528 0.500000
-10.606602 -14.849243 -1.128263 0.000000 0.000000 -1.000000 0.569528 0.500000
-10.606602 -14.849243 -1.128263 0.707107 -0.707107 0.000000 0.569528 0.500000
-10.606602 -14.849243 -1.668659 0.707107 -0.707107 0.000000 0.430472 0.500000
-7.071068 -11.313709 -1.668659 0.707107 -0.707107 0.000000 0.430472 0.500000
0.000000 -4.242641 -1.668659 0.707107 -0.707107 0.000000 0.430472 0.500000
0.000000 -4.242641 -1.128263 0.707107 -0.707107 0.000000 0.569528 0.500000
0.000000 4.242641 -1.668659 0.000000 0.000000 -1.000000 0.180473 0.500000
7.071068 11.313709 -1.668659 0.000000 0.000000 -1.000000 0.180473 0.500000
10.606602 14.849243 -1.668659 0.000000 0.000000 -1.000000 0.180473 0.500000
14.142136 18.384777 -1.668659 -0.000000 0.000000 -1.000000 0.180473 0.500000
16.263456 16.263456 -1.668659 -0.000000 0.000000 -1.000000 0.180473 0.625000
18.384777 14.142136 -1.668659 0.000000 0.000000 -1.000000 0.180473 0.750000
14.849243 10.606602 -1.668659 0.000000 0.000000 -1.000000 0.180473 0.750000
11.313709 7.071068 -1.668659 0.000000 0.000000 -1.000000 0.180473 0.750000
4.242641 0.000000 -1.668659 0.000000 0.000000 -1.000000 0.180473 0.750000
2.121320 2.121320 -1.668659 0.000000 0.000000 -1.000000 0.180473 0.625000
-4.242641 0.000000 1.668659 -0.707107 -0.707107 0.000000 0.569528 0.750000
-4.242641 0.000000 -1.128263 -0.707107 -0.707107 0.000000 0.569528 0.750000
0.000000 -4.242641 -1.128263 -0.707107 -0.707107 0.000000 0.569528 0.500000
0.000000 -4.242641 3.000000 -0.707107 -0.707107 -0.000000 0.625000 0.500000
-4.242641 0.000000 3.000000 -0.707107 -0.707107 -0.000000 0.625000 0.750000
4.242641 0.000000 3.000000 0.707107 0.707107 -0.000000 0.375000 0.750000
4.242641 0.000000 1.668659 0.707107 0.707107 -0.000000 0.319527 0.750000
2.121320 2.121320 1.668659 0.707107 0.707107 -0.000000 0.319527 0.625000
0.000000 4.242641 1.668659 0.707107 0.707107 0.000000 0.319527 0.500000
0.000000 4.242641 3.000000 0.707107 0.707107 0.000000 0.375000 0.500000
4.242641 0.000000 -1.668659 0.707107 0.707107 0.000000 0.430472 0.250000
4.242641 0.000000 -1.128263 0.707107 0.707107 0.000000 0.569528 0.250000
14.849243 -10.606602 -1.128263 0.707107 0.707107 0.000000 0.569528 0.250000
18.384777 -14.142136 -1.128263 0.707107 0.707107 -0.000000 0.569528 0.250000
18.384777 -14.142136 -1.668659 0.707107 0.707107 -0.000000 0.430472 0.250000
-2.121320 2.121320 -1.668659 0.000000 0.000000 0.000000 0.680473 0.625000
-4.242641 0.000000 -1.668659 0.000000 0.000000 0.000000 0.680473 0.500000
-4.242641 0.000000 -1.668659 0.000000 0.000000 0.000000 0.680473 0.500000
-2.121320 2.121320 -1.668659 0.000000 0.000000 0.000000 0.680473 0.625000
-2.121320 2.121320 1.668659 0.000000 0.000000 0.000000 0.819527 0.625000
0.000000 4.242641 1.668659 0.000000 0.000000 0.000000 0.819527 0.750000
0.000000 4.242641 1.668659 0.000000 0.000000 0.000000 0.819527 0.750000
-2.121320 2.121320 1.668659 0.000000 0.000000 0.000000 0.819527 0.625000
-11.313709 -7.071068 -1.128263 0.000000 0.000000 0.000000 0.569528 0.750000
-4.242641 0.000000 -1.128263 0.000000 0.000000 0.000000 0.569528 0.750000
-4.242641 0.000000 -1.128263 0.000000 0.000000 0.000000 0.569528 0.750000
-11.313709 -7.071068 -1.128263 0.000000 0.000000 0.000000 0.569528 0.750000
7.071068 11.313709 -1.668659 0.000000 0.000000 0.000000 0.180473 0.500000
0.000000 4.242641 -1.668659 0.000000 0.000000 0.000000 0.180473 0.500000
0.000000 4.242641 -1.668659 0.000000 0.000000 0.000000 0.180473 0.500000
7.071068 11.313709 -1.668659 0.000000 0.000000 0.000000 0.180473 0.500000
-14.849243 -10.606602 -1.668659 0.000000 0.000000 0.000000 0.430472 0.750000
-18.384777 -14.142136 -1.668659 0.000000 0.000000 0.000000 0.430472 0.750000
-18.384777 -14.142136 -1.668659 0.000000 0.000000 0.000000 0.430472 0.750000
-14.849243 -10.606602 -1.668659 0.000000 0.000000 0.000000 0.430472 0.750000
12.727922 12.727922 -1.128263 0.000000 0.000000 0.000000 0.319527 0.625000
14.849243 10.606602 -1.128263 0.000000 0.000000 0.000000 0.319527 0.750000
14.849243 10.606602 -1.128263 0.000000 0.000000 0.000000 0.319527 0.750000
12.727922 12.727922 -1.128263 0.000000 0.000000 0.000000 0.319527 0.625000
2.121320 2.121320 -1.668659 0.000000 0.000000 0.000000 0.180473 0.625000
0.000000 4.242641 -1.668659 0.000000 0.000000 0.000000 0.180473 0.500000
2.121320 2.121320 -1.668659 0.000000 0.000000 0.000000 0.180473 0.625000
0.000000 4.242641 -1.128263 0.000000 0.000000 0.000000 0.819527 0.750000
0.000000 4.242641 -1.128263 0.000000 0.000000 0.000000 0.819527 0.750000
2.121320 -2.121320 -1.668659 0.000000 0.000000 0.000000 0.430472 0.375000
4.242641 0.000000 -1.668659 0.000000 0.000000 0.000000 0.430472 0.250000
4.242641 0.000000 -1.668659 0.000000 0.000000 0.000000 0.430472 0.250000
2.121320 -2.121320 -1.668659 0.000000 0.000000 0.000000 0.430472 0.375000
-4.242641 0.000000 -1.668659 0.000000 0.000000 0.000000 0.680473 0.500000
-2.121320 2.121320 -1.668659 0.000000 0.000000 0.000000 0.680473 0.625000
-4.242641 0.000000 -1.668659 0.000000 0.000000 0.000000 0.680473 0.500000
0.000000 -4.242641 3.000000 0.707107 -0.707107 0.000000 0.625000 0.500000
0.000000 -4.242641 -1.128263 0.707107 -0.707107 0.000000 0.569528 0.500000
2.121320 -2.121320 -1.128263 0.707107 -0.707107 0.000000 0.569528 0.375000
2.121320 -2.121320 1.668659 0.707107 -0.707107 0.000000 0.569528 0.375000
4.242641 0.000000 1.668659 0.707107 -0.707107 0.000000 0.569528 0.250000
4.242641 0.000000 3.000000 0.707107 -0.707107 0.000000 0.625000 0.250000
-16.263456 16.263456 -1.668659 -0.707107 0.707107 0.000000 0.680473 0.625000
-16.263456 16.263456 -1.128263 -0.707107 0.707107 0.000000 0.819527 0.625000
-14.142136 18.384777 -1.128263 -0.707107 0.707107 0.000000 0.819527 0.750000
-14.142136 18.384777 -1.668659 -0.707107 0.707107 0.000000 0.680473 0.750000
-18.384777 14.142136 -1.128263 0.000000 0.000000 0.000000 0.819527 0.500000
-18.384777 14.142136 -1.668659 0.000000 0.000000 0.000000 0.680473 0.500000
-18.384777 14.142136 -1.668659 0.000000 0.000000 0.000000 0.680473 0.500000
-18.384777 14.142136 -1.128263 0.000000 0.000000 0.000000 0.819527 0.500000
7.071068 -11.313709 -1.668659 0.000000 0.000000 0.000000 0.430472 0.500000
10.606602 -14.849243 -1.668659 0.000000 0.000000 0.000000 0.430472 0.500000
10.606602 -14.849243 -1.668659 0.000000 0.000000 0.000000 0.430472 0.500000
7.071068 -11.313709 -1.668659 0.000000 0.000000 0.000000 0.430472 0.500000
7.071068 11.313709 -1.128263 0.000000 0.000000 0.000000 0.319527 0.500000
10.606602 14.849243 -1.128263 0.000000 0.000000 0.000000 0.319527 0.500000
10.606602 14.849243 -1.128263 0.000000 0.000000 0.000000 0.319527 0.500000
7.071068 11.313709 -1.128263 0.000000 0.000000 0.000000 0.319527 0.500000
16.263456 16.263456 -1.668659 0.707107 0.707107 0.000000 0.180473 0.625000
16.263456 16.263456 -1.128263 0.707107 0.707107 0.000000 0.319527 0.625000
18.384777 14.142136 -1.128263 0.707107 0.707107 0.000000 0.319527 0.750000
18.384777 14.142136 -1.668659 0.707107 0.707107 -0.000000 0.180473 0.750000
14.849243 10.606602 -1.128263 0.707107 -0.707107 0.000000 0.569528 0.250000
14.849243 10.606602 -1.668659 0.707107 -0.707107 0.000000 0.430472 0.250000
18.384777 14.142136 -1.668659 0.707107 -0.707107 0.000000 0.430472 0.250000
18.384777 14.142136 -1.128263 0.707107 -0.707107 0.000000 0.569528 0.250000
-16.263456 -16.263456 -1.128263 0.000000 0.000000 0.000000 0.569528 0.625000
-14.142136 -18.384777 -1.128263 0.000000 0.000000 0.000000 0.569528 0.500000
-14.142136 -18.384777 -1.128263 0.000000 0.000000 0.000000 0.569528 0.500000
-16.263456 -16.263456 -1.128263 0.000000 0.000000 0.000000 0.569528 0.625000
10.606602 14.849243 -0.128263 -0.707107 -0.707107 0.000000 0.319527 0.500000
10.606602 14.849243 -1.128263 -0.707107 -0.707107 0.000000 0.319527 0.500000
12.727922 12.727922 -1.128263 -0.707107 -0.707107 0.000000 0.319527 0.625000
14.849243 10.606602 -1.128263 -0.707107 -0.707107 -0.000000 0.319527 0.750000
14.849243 10.606602 -0.128263 -0.707107 -0.707107 -0.000000 0.319527 0.750000
16.263456 -16.263456 -1.668659 0.707107 -0.707107 0.000000 0.430472 0.375000
16.263456 -16.263456 -1.128263 0.707107 -0.707107 0.000000 0.569528 0.375000
14.142136 -18.384777 -1.128263 0.707107 -0.707107 0.000000 0.569528 0.500000
14.142136 -18.384777 -1.668659 0.707107 -0.707107 0.000000 0.430472 0.500000
-14.142136 18.384777 -1.668659 0.000000 0.000000 0.000000 0.680473 0.750000
-14.142136 18.384777 -1.128263 0.000000 0.000000 0.000000 0.819527 0.750000
-14.142136 18.384777 -1.128263 0.000000 0.000000 0.000000 0.819527 0.750000
-14.142136 18.384777 -1.668659 0.000000 0.000000 0.000000 0.680473 0.750000
14.849243 -10.606602 -1.128263 0.000000 0.000000 0.000000 0.569528 0.250000
14.849243 -10.606602 -1.128263 0.000000 0.000000 0.000000 0.569528 0.250000
14.849243 -10.606602 -0.128263 0.000000 0.000000 0.000000 0.569528 0.250000
18.384777 -14.142136 -0.128263 0.000000 0.000000 0.000000 0.569528 0.250000
18.384777 -14.142136 -1.128263 0.000000 0.000000 0.000000 0.569528 0.250000
18.384777 -14.142136 -1.128263 0.000000 0.000000 0.000000 0.569528 0.250000
14.849243 -10.606602 -0.128263 0.707107 0.707107 0.000000 0.569528 0.250000
18.384777 -14.142136 -0.128263 0.707107 0.707107 -0.000000 0.569528 0.250000
-16.263456 -16.263456 -1.668659 -0.707107 -0.707107 -0.000000 0.430472 0.625000
-16.263456 -16.263456 -1.128263 -0.707107 -0.707107 -0.000000 0.569528 0.625000
-18.384777 -14.142136 -1.128263 -0.707107 -0.707107 -0.000000 0.569528 0.750000
-18.384777 -14.142136 -1.668659 -0.707107 -0.707107 0.000000 0.430472 0.750000
-11.313709 7.071068 -1.128263 0.000000 0.000000 0.000000 0.819527 0.500000
-14.849243 10.606602 -1.128263 0.000000 0.000000 0.000000 0.819527 0.500000
-14.849243 10.606602 -1.128263 0.000000 0.000000 0.000000 0.819527 0.500000
-11.313709 7.071068 -1.128263 0.000000 0.000000 0.000000 0.819527 0.500000
10.606602 -14.849243 -1.128263 0.000000 0.000000 0.000000 0.569528 0.500000
7.071068 -11.313709 -1.128263 0.000000 0.000000 0.000000 0.569528 0.500000
7.071068 -11.313709 -1.128263 0.000000 0.000000 0.000000 0.569528 0.500000
10.606602 -14.849243 -1.128263 0.000000 0.000000 0.000000 0.569528 0.500000
0.000000 4.242641 -1.128263 0.000000 0.000000 0.000000 0.319527 0.500000
0.000000 4.242641 -1.128263 0.000000 0.000000 0.000000 0.319527 0.500000
18.384777 -14.142136 -0.128263 -0.000000 0.000000 1.000000 0.569528 0.250000
14.849243 -10.606602 -0.128263 -0.000000 0.000000 1.000000 0.569528 0.250000
10.606602 -14.849243 -0.128263 -0.000000 0.000000 1.000000 0.569528 0.500000
14.142136 -18.384777 -0.128263 0.000000 0.000000 1.000000 0.569528 0.500000
16.263456 -16.263456 -0.128263 0.000000 0.000000 1.000000 0.569528 0.375000
-10.606602 14.849243 -1.128263 0.000000 0.000000 0.000000 0.819527 0.750000
-7.071068 11.313709 -1.128263 0.000000 0.000000 0.000000 0.819527 0.750000
-7.071068 11.313709 -1.128263 0.000000 0.000000 0.000000 0.819527 0.750000
-10.606602 14.849243 -1.128263 0.000000 0.000000 0.000000 0.819527 0.750000
4.242641 0.000000 -1.668659 0.000000 0.000000 0.000000 0.180473 0.750000
4.242641 0.000000 -1.668659 0.606339 0.606339 -0.514496 0.180473 0.750000
3.394113 0.000000 -2.668660 0.606339 0.606339 -0.514496 0.180473 0.750000
0.000000 3.394113 -2.668660 0.606339 0.606339 -0.514496 0.180473 0.500000
0.000000 4.242641 -1.668659 0.606339 0.606339 -0.514496 0.180473 0.500000
-10.606602 -14.849243 -0.128263 0.707107 0.707107 -0.000000 0.569528 0.500000
-10.606602 -14.849243 -1.128263 0.707107 0.707107 -0.000000 0.569528 0.500000
-12.727922 -12.727922 -1.128263 0.707107 0.707107 -0.000000 0.569528 0.625000
-14.849243 -10.606602 -1.128263 0.707107 0.707107 0.000000 0.569528 0.750000
-14.849243 -10.606602 -0.128263 0.707107 0.707107 0.000000 0.569528 0.750000
14.849243 10.606602 -1.128263 0.000000 0.000000 0.000000 0.569528 0.250000
18.384777 14.142136 -1.128263 0.000000 0.000000 0.000000 0.569528 0.250000
18.384777 14.142136 -1.128263 0.000000 0.000000 0.000000 0.569528 0.250000
14.849243 10.606602 -1.128263 0.000000 0.000000 0.000000 0.569528 0.250000
-18.384777 -14.142136 -1.128263 0.000000 0.000000 0.000000 0.569528 0.750000
-18.384777 -14.142136 -1.128263 0.000000 0.000000 0.000000 0.569528 0.750000
-7.071068 11.313709 -1.668659 0.000000 0.000000 0.000000 0.680473 0.750000
-10.606602 14.849243 -1.668659 0.000000 0.000000 0.000000 0.680473 0.750000
-10.606602 14.849243 -1.668659 0.000000 0.000000 0.000000 0.680473 0.750000
-7.071068 11.313709 -1.668659 0.000000 0.000000 0.000000 0.680473 0.750000
-10.606602 -14.849243 -1.668659 0.000000 0.000000 0.000000 0.430472 0.500000
-7.071068 -11.313709 -1.668659 0.000000 0.000000 0.000000 0.430472 0.500000
-7.071068 -11.313709 -1.668659 0.000000 0.000000 0.000000 0.430472 0.500000
-10.606602 -14.849243 -1.668659 0.000000 0.000000 0.000000 0.430472 0.500000
-14.142136 -18.384777 -1.668659 0.000000 0.000000 0.000000 0.430472 0.500000
-14.142136 -18.384777 -1.668659 0.000000 0.000000 0.000000 0.430472 0.500000
-14.849243 10.606602 -0.128263 0.707107 -0.707107 0.000000 0.819527 0.500000
-14.849243 10.606602 -1.128263 0.707107 -0.707107 0.000000 0.819527 0.500000
-12.727922 12.727922 -1.128263 0.707107 -0.707107 0.000000 0.819527 0.625000
-10.606602 14.849243 -1.128263 0.707107 -0.707107 0.000000 0.819527 0.750000
-10.606602 14.849243 -0.128263 0.707107 -0.707107 0.000000 0.819527 0.750000
14.142136 18.384777 -1.668659 0.000000 0.000000 0.000000 0.180473 0.500000
10.606602 14.849243 -1.668659 0.000000 0.000000 0.000000 0.180473 0.500000
10.606602 14.849243 -1.668659 0.000000 0.000000 0.000000 0.180473 0.500000
14.142136 18.384777 -1.668659 0.000000 0.000000 0.000000 0.180473 0.500000
-11.313709 7.071068 -1.668659 0.000000 0.000000 0.000000 0.680473 0.500000
-4.242641 0.000000 -1.668659 0.000000 0.000000 0.000000 0.680473 0.500000
-11.313709 7.071068 -1.668659 0.000000 0.000000 0.000000 0.680473 0.500000
16.263456 16.263456 -1.128263 0.000000 0.000000 0.000000 0.319527 0.625000
14.142136 18.384777 -1.128263 0.000000 0.000000 0.000000 0.319527 0.500000
14.142136 18.384777 -1.128263 0.000000 0.000000 0.000000 0.319527 0.500000
16.263456 16.263456 -1.128263 0.000000 0.000000 0.000000 0.319527 0.625000
-12.727922 12.727922 -1.128263 0.000000 0.000000 0.000000 0.819527 0.625000
-12.727922 12.727922 -1.128263 0.000000 0.000000 0.000000 0.819527 0.625000
4.242641 0.000000 -1.128263 0.707107 -0.707107 0.000000 0.569528 0.250000
4.242641 0.000000 -1.668659 0.707107 -0.707107 0.000000 0.430472 0.250000
11.313709 7.071068 -1.668659 0.707107 -0.707107 0.000000 0.430472 0.250000
11.313709 7.071068 -1.128263 0.707107 -0.707107 0.000000 0.569528 0.250000
14.142136 18.384777 -0.128263 0.000000 -0.000000 1.000000 0.319527 0.500000
10.606602 14.849243 -0.128263 0.000000 -0.000000 1.000000 0.319527 0.500000
14.849243 10.606602 -0.128263 0.000000 -0.000000 1.000000 0.319527 0.750000
18.384777 14.142136 -0.128263 0.000000 0.000000 1.000000 0.319527 0.750000
16.263456 16.263456 -0.128263 0.000000 0.000000 1.000000 0.319527 0.625000
0.000000 -4.242641 -1.128263 0.000000 0.000000 0.000000 0.569528 0.500000
-7.071068 -11.313709 -1.128263 0.000000 0.000000 0.000000 0.569528 0.500000
-7.071068 -11.313709 -1.128263 0.000000 0.000000 0.000000 0.569528 0.500000
0.000000 -4.242641 -1.128263 0.000000 0.000000 0.000000 0.569528 0.500000
-2.121320 2.121320 -1.128263 0.000000 0.000000 0.000000 0.819527 0.625000
-2.121320 2.121320 -1.128263 -0.707107 0.707107 0.000000 0.819527 0.625000
-4.242641 0.000000 -1.128263 -0.707107 0.707107 0.000000 0.819527 0.500000
-4.242641 0.000000 1.668659 -0.707107 0.707107 0.000000 0.819527 0.500000
-2.121320 2.121320 1.668659 -0.707107 0.707107 0.000000 0.819527 0.625000
-14.849243 -10.606602 -1.128263 -0.707107 0.707107 0.000000 0.569528 0.750000
-14.849243 -10.606602 -1.668659 -0.707107 0.707107 0.000000 0.430472 0.750000
-18.384777 -14.142136 -1.668659 -0.707107 0.707107 0.000000 0.430472 0.750000
-18.384777 -14.142136 -1.128263 -0.707107 0.707107 0.000000 0.569528 0.750000
16.263456 16.263456 -1.128263 0.707107 0.707107 0.000000 0.319527 0.625000
14.142136 18.384777 -1.128263 0.707107 0.707107 0.000000 0.319527 0.500000
14.142136 18.384777 -0.128263 0.707107 0.707107 0.000000 0.319527 0.500000
16.263456 16.263456 -0.128263 0.707107 0.707107 0.000000 0.319527 0.625000
0.000000 4.242641 -1.668659 0.000000 0.000000 0.000000 0.180473 0.500000
0.000000 4.242641 -1.128263 0.000000 0.000000 0.000000 0.319527 0.500000
-4.242641 0.000000 -1.668659 0.000000 0.000000 0.000000 0.430472 0.750000
-4.242641 0.000000 -1.128263 0.000000 0.000000 0.000000 0.569528 0.750000
-4.242641 0.000000 -1.668659 0.000000 0.000000 0.000000 0.430472 0.750000
-10.606602 14.849243 -1.128263 0.707107 0.707107 -0.000000 0.319527 0.500000
-10.606602 14.849243 -1.668659 0.707107 0.707107 -0.000000 0.180473 0.500000
-14.142136 18.384777 -1.668659 0.707107 0.707107 -0.000000 0.180473 0.500000
-14.142136 18.384777 -1.128263 0.707107 0.707107 0.000000 0.319527 0.500000
-14.142136 18.384777 -0.128263 0.707107 0.707107 0.000000 0.319527 0.500000
-10.606602 14.849243 -0.128263 0.707107 0.707107 0.000000 0.319527 0.500000
-14.849243 10.606602 -1.128263 -0.707107 -0.707107 -0.000000 0.569528 0.750000
-14.849243 10.606602 -0.128263 -0.707107 -0.707107 -0.000000 0.569528 0.750000
-18.384777 14.142136 -0.128263 -0.707107 -0.707107 -0.000000 0.569528 0.750000
-18.384777 14.142136 -1.128263 -0.707107 -0.707107 0.000000 0.569528 0.750000
-18.384777 14.142136 -1.668659 -0.707107 -0.707107 0.000000 0.430472 0.750000
-14.849243 10.606602 -1.668659 -0.707107 -0.707107 0.000000 0.430472 0.750000
-4.242641 0.000000 -1.668659 -0.707107 -0.707107 -0.000000 0.430472 0.750000
-4.242641 0.000000 -1.128263 -0.707107 -0.707107 -0.000000 0.569528 0.750000
-11.313709 7.071068 -1.128263 -0.707107 -0.707107 -0.000000 0.569528 0.750000
-4.242641 0.000000 -1.668659 -0.707107 -0.707107 -0.000001 0.430472 0.750000
-11.313709 7.071068 -1.128263 -0.707107 -0.707107 -0.000001 0.569528 0.750000
-14.849243 10.606602 -1.128263 -0.707107 -0.707107 -0.000001 0.569528 0.750000
-11.313709 7.071068 -1.668659 -0.707107 -0.707107 0.000000 0.430472 0.750000
10.606602 14.849243 -1.668659 -0.707107 0.707107 0.000000 0.180473 0.500000
10.606602 14.849243 -1.128263 -0.707107 0.707107 0.000000 0.319527 0.500000
14.142136 18.384777 -1.128263 -0.707107 0.707107 0.000000 0.319527 0.500000
14.142136 18.384777 -1.668659 -0.707107 0.707107 0.000000 0.180473 0.500000
0.000000 -4.242641 -1.668659 0.000000 0.000000 1.000000 0.430472 0.500000
7.071068 -11.313709 -1.668659 0.000000 0.000000 1.000000 0.430472 0.500000
10.606602 -14.849243 -1.668659 0.000000 0.000000 1.000000 0.430472 0.500000
10.606602 -14.849243 -1.668659 -0.707107 -0.707107 -0.000000 0.430472 0.500000
14.142136 -18.384777 -1.668659 -0.707107 -0.707107 -0.000000 0.430472 0.500000
14.142136 -18.384777 -1.128263 -0.707107 -0.707107 -0.000000 0.569528 0.500000
14.142136 -18.384777 -0.128263 -0.707107 -0.707107 -0.000000 0.569528 0.500000
10.606602 -14.849243 -0.128263 -0.707107 -0.707107 -0.000000 0.569528 0.500000
10.606602 -14.849243 -1.128263 0.000000 0.000000 -1.000000 0.569528 0.500000
7.071068 -11.313709 -1.128263 0.000000 0.000000 -1.000000 0.569528 0.500000
10.606602 -14.849243 -1.128263 -0.707107 -0.707107 0.000000 0.569528 0.500000
0.000000 -4.242641 -1.668659 -0.707107 -0.707107 0.000000 0.430472 0.500000
0.000000 -4.242641 -1.128263 -0.707107 -0.707107 0.000000 0.569528 0.500000
0.000000 4.242641 -1.668659 0.000000 0.000000 1.000000 0.180473 0.500000
-7.071068 11.313709 -1.668659 0.000000 0.000000 1.000000 0.180473 0.500000
-10.606602 14.849243 -1.668659 0.000000 0.000000 1.000000 0.180473 0.500000
-7.071068 11.313709 -1.128263 0.707107 0.707107 0.000000 0.319527 0.500000
0.000000 4.242641 -1.128263 0.707107 0.707107 -0.000000 0.319527 0.500000
0.000000 4.242641 -1.668659 0.707107 0.707107 -0.000000 0.180473 0.500000
0.000000 4.242641 -1.128263 0.000000 0.000000 -1.000000 0.319527 0.500000
7.071068 11.313709 -1.128263 0.000000 0.000000 -1.000000 0.319527 0.500000
10.606602 14.849243 -1.128263 0.000000 0.000000 -1.000000 0.319527 0.500000
7.071068 11.313709 -1.668659 -0.707107 0.707107 0.000000 0.180473 0.500000
0.000000 4.242641 -1.668659 -0.707107 0.707107 0.000000 0.180473 0.500000
0.000000 4.242641 -1.128263 -0.707107 0.707107 0.000000 0.319527 0.500000
-14.849243 10.606602 -1.668659 0.000000 0.000000 0.000000 0.680473 0.500000
-16.263456 16.263456 -1.668659 -0.000000 0.000000 -1.000000 0.680473 0.625000
-14.142136 18.384777 -1.668659 -0.000000 0.000000 -1.000000 0.680473 0.750000
-10.606602 14.849243 -1.668659 -0.000000 0.000000 -1.000000 0.680473 0.750000
-11.313709 7.071068 -1.668659 0.000000 -0.000000 -1.000000 0.680473 0.500000
-18.384777 14.142136 -1.668659 0.000000 -0.000000 -1.000000 0.680473 0.500000
-2.121320 2.121320 -1.668659 0.000000 0.000000 -1.000000 0.680473 0.625000
-4.242641 0.000000 -1.668659 0.000000 0.000000 -1.000000 0.680473 0.500000
-7.071068 11.313709 -1.668659 0.000000 0.000000 -1.000000 0.680473 0.750000
0.000000 4.242641 -1.668659 0.000000 0.000000 -1.000000 0.680473 0.750000
-11.313709 -7.071068 -1.668659 0.000000 0.000000 0.000000 0.430472 0.750000
-11.313709 -7.071068 -1.668659 0.000000 0.000000 0.000000 0.430472 0.750000
14.142136 -18.384777 -1.668659 0.000000 0.000000 0.000000 0.430472 0.500000
14.142136 -18.384777 -1.128263 0.000000 0.000000 0.000000 0.569528 0.500000
14.142136 -18.384777 -1.128263 0.000000 0.000000 0.000000 0.569528 0.500000
14.142136 -18.384777 -1.668659 0.000000 0.000000 0.000000 0.430472 0.500000
-16.263456 16.263456 -1.128263 0.000000 0.000000 0.000000 0.819527 0.625000
-16.263456 16.263456 -1.128263 0.000000 0.000000 0.000000 0.819527 0.625000
-10.606602 -14.849243 -1.128263 0.000000 0.000000 0.000000 0.569528 0.500000
-10.606602 -14.849243 -1.128263 0.000000 0.000000 0.000000 0.569528 0.500000
0.000000 4.242641 -1.668659 0.000000 0.000000 0.000000 0.680473 0.750000
0.000000 4.242641 -1.668659 0.000000 0.000000 0.000000 0.680473 0.750000
-14.849243 10.606602 -1.668659 0.000000 0.000000 0.000000 0.680473 0.500000
0.000000 -4.242641 -1.668659 0.000000 0.000000 0.000000 0.430472 0.500000
0.000000 4.242641 -1.128263 0.000000 0.000000 0.000000 0.819527 0.750000
0.000000 4.242641 -1.128263 0.000000 0.000000 0.000000 0.819527 0.750000
16.263456 -16.263456 -1.128263 0.000000 0.000000 0.000000 0.569528 0.375000
16.263456 -16.263456 -1.128263 0.000000 0.000000 0.000000 0.569528 0.375000
-4.242641 0.000000 -1.668659 0.000000 0.000000 0.000000 0.680473 0.500000
-4.242641 0.000000 -1.128263 0.000000 0.000000 0.000000 0.819527 0.500000
-4.242641 0.000000 -1.128263 0.000000 0.000000 0.000000 0.819527 0.500000
12.727922 -12.727922 -1.128263 0.000000 0.000000 0.000000 0.569528 0.375000
12.727922 -12.727922 -1.128263 0.000000 0.000000 0.000000 0.569528 0.375000
-12.727922 -12.727922 -1.128263 0.000000 0.000000 0.000000 0.569528 0.625000
-14.849243 -10.606602 -1.128263 0.000000 0.000000 0.000000 0.569528 0.750000
-14.849243 -10.606602 -1.128263 0.000000 0.000000 0.000000 0.569528 0.750000
-12.727922 -12.727922 -1.128263 0.000000 0.000000 0.000000 0.569528 0.625000
-4.242641 0.000000 -1.668659 0.000000 0.000000 0.000000 0.430472 0.750000
-11.313709 -7.071068 -1.128263 0.000000 -0.000000 1.000000 0.569528 0.750000
-14.849243 -10.606602 -1.128263 0.000000 -0.000000 1.000000 0.569528 0.750000
-12.727922 -12.727922 -1.128263 0.000000 -0.000000 1.000000 0.569528 0.625000
-10.606602 -14.849243 -1.128263 0.000000 0.000000 1.000000 0.569528 0.500000
-7.071068 -11.313709 -1.128263 0.000000 0.000000 1.000000 0.569528 0.500000
0.000000 -4.242641 -1.128263 0.000000 0.000000 1.000000 0.569528 0.500000
-4.242641 0.000000 -1.128263 0.000000 0.000000 1.000000 0.569528 0.750000
-14.142136 -18.384777 -0.128263 0.000000 0.000000 1.000000 0.569528 0.500000
-10.606602 -14.849243 -0.128263 0.000000 0.000000 1.000000 0.569528 0.500000
-14.849243 -10.606602 -0.128263 0.000000 0.000000 1.000000 0.569528 0.750000
-18.384777 -14.142136 -0.128263 0.000000 -0.000000 1.000000 0.569528 0.750000
-16.263456 -16.263456 -0.128263 0.000000 -0.000000 1.000000 0.569528 0.625000
-18.384777 -14.142136 -0.128263 -0.707107 0.707107 0.000000 0.569528 0.750000
-14.849243 -10.606602 -0.128263 -0.707107 0.707107 0.000000 0.569528 0.750000
-16.263456 -16.263456 -1.128263 -0.707107 -0.707107 -0.000000 0.569528 0.625000
-14.142136 -18.384777 -1.128263 -0.707107 -0.707107 -0.000000 0.569528 0.500000
-14.142136 -18.384777 -0.128263 -0.707107 -0.707107 -0.000000 0.569528 0.500000
-16.263456 -16.263456 -0.128263 -0.707107 -0.707107 0.000000 0.569528 0.625000
7.071068 -11.313709 -1.128263 0.000000 0.000000 1.000000 0.569528 0.500000
10.606602 -14.849243 -1.128263 0.000000 0.000000 1.000000 0.569528 0.500000
12.727922 -12.727922 -1.128263 0.000000 0.000000 1.000000 0.569528 0.375000
14.849243 -10.606602 -1.128263 0.000000 0.000000 1.000000 0.569528 0.250000
4.242641 0.000000 -1.128263 0.000000 0.000000 1.000000 0.569528 0.250000
2.121320 -2.121320 -1.128263 -0.000000 0.000000 1.000000 0.569528 0.375000
16.263456 -16.263456 -1.128263 0.707107 -0.707107 0.000000 0.569528 0.375000
18.384777 -14.142136 -1.128263 0.707107 -0.707107 0.000000 0.569528 0.250000
18.384777 -14.142136 -0.128263 0.707107 -0.707107 0.000000 0.569528 0.250000
16.263456 -16.263456 -0.128263 0.707107 -0.707107 0.000000 0.569528 0.375000
11.313709 7.071068 -1.128263 0.000000 0.000000 1.000000 0.319527 0.750000
14.849243 10.606602 -1.128263 0.000000 0.000000 1.000000 0.319527 0.750000
12.727922 12.727922 -1.128263 0.000000 0.000000 1.000000 0.319527 0.625000
10.606602 14.849243 -1.128263 -0.000000 0.000000 1.000000 0.319527 0.500000
7.071068 11.313709 -1.128263 -0.000000 0.000000 1.000000 0.319527 0.500000
0.000000 4.242641 -1.128263 0.000000 -0.000000 1.000000 0.319527 0.500000
2.121320 2.121320 -1.128263 0.000000 -0.000000 1.000000 0.319527 0.625000
4.242641 0.000000 -1.128263 0.000000 0.000000 1.000000 0.319527 0.750000
14.849243 -10.606602 -0.128263 -0.707107 0.707107 0.000000 0.569528 0.250000
14.849243 -10.606602 -1.128263 -0.707107 0.707107 0.000000 0.569528 0.250000
12.727922 -12.727922 -1.128263 -0.707107 0.707107 0.000000 0.569528 0.375000
10.606602 -14.849243 -1.128263 -0.707107 0.707107 0.000000 0.569528 0.500000
10.606602 -14.849243 -0.128263 -0.707107 0.707107 0.000000 0.569528 0.500000
14.849243 10.606602 -1.128263 0.707107 -0.707107 0.000000 0.569528 0.250000
18.384777 14.142136 -1.128263 0.707107 -0.707107 0.000000 0.569528 0.250000
18.384777 14.142136 -0.128263 0.707107 -0.707107 0.000000 0.569528 0.250000
14.849243 10.606602 -0.128263 0.707107 -0.707107 0.000000 0.569528 0.250000
10.606602 14.849243 -0.128263 -0.707107 0.707107 0.000000 0.319527 0.500000
14.142136 18.384777 -0.128263 -0.707107 0.707107 0.000000 0.319527 0.500000
0.000000 4.242641 -1.128263 0.000000 0.000000 1.000000 0.819527 0.750000
-7.071068 11.313709 -1.128263 0.000000 0.000000 1.000000 0.819527 0.750000
-10.606602 14.849243 -1.128263 0.000000 0.000000 1.000000 0.819527 0.750000
-12.727922 12.727922 -1.128263 0.000000 -0.000000 1.000000 0.819527 0.625000
-14.849243 10.606602 -1.128263 0.000000 -0.000000 1.000000 0.819527 0.500000
-11.313709 7.071068 -1.128263 0.000000 -0.000000 1.000000 0.819527 0.500000
-4.242641 0.000000 -1.128263 0.000000 0.000000 1.000000 0.819527 0.500000
-2.121320 2.121320 -1.128263 0.000000 0.000000 1.000000 0.819527 0.625000
-16.263456 16.263456 -1.128263 -0.707107 0.707107 0.000000 0.819527 0.625000
-18.384777 14.142136 -1.128263 -0.707107 0.707107 0.000000 0.819527 0.500000
-18.384777 14.142136 -0.128263 -0.707107 0.707107 0.000000 0.819527 0.500000
-16.263456 16.263456 -0.128263 -0.707107 0.707107 0.000000 0.819527 0.625000
-18.384777 14.142136 -0.128263 0.000000 0.000000 1.000000 0.819527 0.500000
-14.849243 10.606602 -0.128263 0.000000 0.000000 1.000000 0.819527 0.500000
-10.606602 14.849243 -0.128263 0.000000 0.000000 1.000000 0.819527 0.750000
-14.142136 18.384777 -0.128263 -0.000000 0.000000 1.000000 0.819527 0.750000
-16.263456 16.263456 -0.128263 -0.000000 0.000000 1.000000 0.819527 0.625000
-14.142136 18.384777 -1.128263 -0.707107 0.707107 0.000000 0.819527 0.750000
-14.142136 18.384777 -0.128263 -0.707107 0.707107 0.000000 0.819527 0.750000
14.142136 -18.384777 -1.128263 0.707107 -0.707107 0.000000 0.569528 0.500000
14.142136 -18.384777 -0.128263 0.707107 -0.707107 0.000000 0.569528 0.500000
2.121320 -2.121320 -1.668659 -0.000000 0.000000 -1.000000 0.430472 0.375000
4.242641 0.000000 -1.668659 -0.000000 0.000000 -1.000000 0.430472 0.250000
18.384777 -14.142136 -1.668659 -0.000000 0.000000 -1.000000 0.430472 0.250000
16.263456 -16.263456 -1.668659 0.000000 0.000000 -1.000000 0.430472 0.375000
14.142136 -18.384777 -1.668659 0.000000 0.000000 -1.000000 0.430472 0.500000
10.606602 -14.849243 -1.668659 0.000000 0.000000 -1.000000 0.430472 0.500000
7.071068 -11.313709 -1.668659 0.000000 -0.000000 -1.000000 0.430472 0.500000
0.000000 -4.242641 -1.668659 0.000000 -0.000000 -1.000000 0.430472 0.500000
18.384777 -14.142136 -1.668659 0.707107 -0.707107 0.000000 0.430472 0.250000
18.384777 -14.142136 -1.128263 0.707107 -0.707107 0.000000 0.569528 0.250000
-18.384777 14.142136 -1.668659 -0.707107 0.707107 0.000000 0.680473 0.500000
-18.384777 14.142136 -1.128263 -0.707107 0.707107 0.000000 0.819527 0.500000
-2.121320 2.121320 1.668659 0.000000 -0.000000 1.000000 0.000000 0.000000
2.121320 2.121320 1.668659 0.000000 -0.000000 1.000000 0.000000 0.000000
0.212132 12.121321 1.668660 0.000000 -0.000000 1.000000 0.000000 0.000000
-0.212132 12.121321 1.668660 0.000000 -0.000000 1.000000 0.000000 0.000000
0.000000 4.242641 3.000000 -0.707107 0.707107 0.000000 0.875000 0.750000
0.000000 4.242641 1.668659 -0.707107 0.707107 0.000000 0.819527 0.750000
-4.242641 0.000000 3.000000 -0.707107 0.707107 0.000000 0.875000 0.500000
0.000000 4.242641 3.000000 0.000000 -0.000000 1.000000 0.375000 0.000000
-4.242641 0.000000 3.000000 0.000000 -0.000000 1.000000 0.625000 0.000000
0.000000 -4.242641 3.000000 0.000000 -0.000000 1.000000 0.625000 0.250000
4.242641 0.000000 3.000000 0.000000 -0.000000 1.000000 0.375000 0.250000
-18.384777 -14.142136 -1.128263 -0.707107 -0.707107 -0.000000 0.569528 0.750000
-18.384777 -14.142136 -0.128263 -0.707107 -0.707107 0.000000 0.569528 0.750000
18.384777 14.142136 -1.128263 0.707107 0.707107 0.000000 0.319527 0.750000
18.384777 14.142136 -0.128263 0.707107 0.707107 0.000000 0.319527 0.750000
18.384777 14.142136 -1.128263 0.000000 0.000000 0.000000 0.319527 0.750000
18.384777 14.142136 -1.128263 0.000000 0.000000 0.000000 0.319527 0.750000
-10.606602 -14.849243 -0.128263 0.000000 0.000000 0.000000 0.569528 0.500000
-10.606602 -14.849243 -0.128263 0.707107 -0.707107 0.000000 0.569528 0.500000
-14.142136 -18.384777 -0.128263 0.707107 -0.707107 0.000000 0.569528 0.500000
-14.142136 -18.384777 -1.128263 0.707107 -0.707107 0.000000 0.569528 0.500000
-14.142136 -18.384777 -1.668659 0.707107 -0.707107 0.000000 0.430472 0.500000
-14.142136 -18.384777 -1.668659 -0.707107 -0.707107 -0.000000 0.430472 0.500000
-14.142136 -18.384777 -1.128263 -0.707107 -0.707107 -0.000000 0.569528 0.500000
-4.242641 0.000000 -1.668659 0.000000 0.000000 1.000000 0.430472 0.750000
-11.313709 -7.071068 -1.668659 0.000000 0.000000 1.000000 0.430472 0.750000
-14.849243 -10.606602 -1.668659 0.000000 0.000000 1.000000 0.430472 0.750000
-11.313709 -7.071068 -1.128263 -0.707107 0.707107 0.000000 0.569528 0.750000
-4.242641 0.000000 -1.128263 -0.707107 0.707107 0.000000 0.569528 0.750000
-4.242641 0.000000 -1.668659 -0.707107 0.707107 0.000000 0.430472 0.750000
14.142136 18.384777 -1.668659 0.707107 0.707107 0.000000 0.180473 0.500000
14.142136 18.384777 -1.128263 0.707107 0.707107 0.000000 0.319527 0.500000
4.242641 0.000000 -1.668659 0.000000 0.000000 0.000000 0.180473 0.750000
-4.242641 0.000000 -1.668659 0.000000 0.000000 0.000000 0.430472 0.750000
-2.121320 2.121320 -1.128263 0.000000 -0.000000 -1.000000 0.000000 0.000000
-0.212132 12.121321 -1.128263 0.000000 -0.000000 -1.000000 0.000000 0.000000
0.212132 12.121321 -1.128263 -0.000000 -0.000000 -1.000000 0.000000 0.000000
2.121320 2.121320 1.668659 0.982258 0.187532 -0.000000 0.319527 0.625000
2.121320 2.121320 -1.128263 0.982258 0.187532 -0.000000 0.319527 0.625000
0.212132 12.121321 -1.128263 0.982258 0.187532 -0.000000 0.319527 0.625000
2.121320 2.121320 1.668659 0.982259 0.187532 0.000000 0.319527 0.625000
0.212132 12.121321 -1.128263 0.982259 0.187532 0.000000 0.319527 0.625000
0.212132 12.121321 1.668660 0.982259 0.187532 0.000000 0.319527 0.625000
-2.121320 2.121320 -1.128263 -0.982258 0.187532 0.000000 0.819527 0.625000
-2.121320 2.121320 1.668659 -0.982258 0.187532 0.000000 0.819527 0.625000
-0.212132 12.121321 1.668660 -0.982258 0.187532 0.000000 0.819527 0.625000
-2.121320 2.121320 -1.128263 -0.982259 0.187532 0.000000 0.819527 0.625000
-0.212132 12.121321 1.668660 -0.982259 0.187532 0.000000 0.819527 0.625000
-0.212132 12.121321 -1.128263 -0.982259 0.187532 0.000000 0.819527 0.625000
-0.212132 12.121321 -1.128263 0.000000 1.000000 0.000000 0.819527 0.625000
-0.212132 12.121321 1.668660 0.000000 1.000000 0.000000 0.819527 0.625000
0.212132 12.121321 1.668660 0.000000 1.000000 0.000000 0.319527 0.625000
0.212132 12.121321 -1.128263 0.000000 1.000000 -0.000000 0.319527 0.625000
2.121320 -2.121320 -1.128263 0.126261 -0.991997 0.000000 0.569528 0.375000
17.121307 -0.212132 -1.128264 0.126261 -0.991997 0.000000 0.569528 0.375000
17.121307 -0.212132 1.668660 0.126261 -0.991997 0.000000 0.569528 0.375000
2.121320 -2.121320 1.668659 0.126261 -0.991997 0.000000 0.569528 0.375000
2.121320 2.121320 1.668659 0.126261 0.991997 -0.000000 0.319527 0.625000
17.121307 0.212132 1.668660 0.126261 0.991997 -0.000000 0.319527 0.625000
17.121307 0.212132 -1.128264 0.126261 0.991997 -0.000000 0.319527 0.625000
2.121320 2.121320 -1.128263 0.126261 0.991997 0.000000 0.319527 0.625000
17.121307 0.212132 1.668660 1.000000 0.000000 0.000000 0.319527 0.625000
17.121307 -0.212132 1.668660 1.000000 0.000000 0.000000 0.569528 0.375000
17.121307 -0.212132 -1.128264 1.000000 0.000000 0.000000 0.569528 0.375000
17.121307 0.212132 -1.128264 1.000000 0.000000 -0.000000 0.319527 0.625000
2.121320 -2.121320 1.668659 -0.000000 0.000000 1.000000 0.000000 0.000000
17.121307 -0.212132 1.668660 -0.000000 0.000000 1.000000 0.000000 0.000000
17.121307 0.212132 1.668660 -0.000000 0.000000 1.000000 0.000000 0.000000
-16.263456 -16.263456 -1.668659 0.000000 0.000000 0.000000 0.430472 0.625000
-14.849243 -10.606602 -1.668659 0.000000 0.000000 -1.000000 0.430472 0.750000
-11.313709 -7.071068 -1.668659 0.000000 0.000000 -1.000000 0.430472 0.750000
-4.242641 0.000000 -1.668659 0.000000 0.000000 -1.000000 0.430472 0.750000
-14.142136 -18.384777 -1.668659 0.000000 -0.000000 -1.000000 0.430472 0.500000
-18.384777 -14.142136 -1.668659 0.000000 -0.000000 -1.000000 0.430472 0.750000
-7.071068 -11.313709 -1.668659 0.000000 0.000000 -1.000000 0.430472 0.500000
-10.606602 -14.849243 -1.668659 0.000000 0.000000 -1.000000 0.430472 0.500000
-2.121320 -2.121320 -1.668659 -0.000000 0.000000 -1.000000 0.430472 0.625000
-3.394113 0.000000 -2.668660 -0.000000 0.000000 -1.000000 0.680473 0.500000
0.000000 3.394113 -2.668660 -0.000000 0.000000 -1.000000 0.180473 0.500000
3.394113 0.000000 -2.668660 -0.000000 0.000000 -1.000000 0.430472 0.250000
0.000000 -3.394113 -2.668660 0.000000 0.000000 -1.000000 0.430472 0.500000
0.000000 -4.242641 -1.668659 0.606339 -0.606339 -0.514496 0.430472 0.500000
0.000000 -3.394113 -2.668660 0.606339 -0.606339 -0.514496 0.430472 0.500000
3.394113 0.000000 -2.668660 0.606339 -0.606339 -0.514496 0.430472 0.250000
4.242641 0.000000 -1.668659 0.606339 -0.606339 -0.514496 0.430472 0.250000
0.000000 4.242641 -1.668659 -0.606339 0.606339 -0.514496 0.680473 0.750000
0.000000 3.394113 -2.668660 -0.606339 0.606339 -0.514496 0.680473 0.750000
-3.394113 0.000000 -2.668660 -0.606339 0.606339 -0.514496 0.680473 0.500000
-4.242641 0.000000 -1.668659 -0.606339 0.606339 -0.514496 0.680473 0.500000
-4.242641 0.000000 -1.668659 -0.606339 -0.606339 -0.514496 0.430472 0.750000
-3.394113 0.000000 -2.668660 -0.606339 -0.606339 -0.514496 0.430472 0.750000
0.000000 -3.394113 -2.668660 -0.606339 -0.606339 -0.514496 0.430472 0.500000
0.000000 -4.242641 -1.668659 -0.606339 -0.606339 -0.514496 0.430472 0.500000
3 0 1 2
3 0 2 3
3 4 5 6
3 4 6 7
3 8 9 10
3 8 10 11
3 12 13 14
3 15 16 17
3 18 19 20
3 20 21 22
3 18 20 22
3 23 24 25
3 25 26 27
3 27 28 29
3 30 31 32
3 27 29 30
3 23 25 27
3 30 32 23
3 27 30 23
3 33 34 35
3 35 36 37
3 35 37 33
3 38 39 40
3 40 41 42
3 40 42 38
3 43 44 45
3 45 46 47
3 45 47 43
3 48 49 50
3 48 50 51
3 52 53 54
3 52 54 55
3 56 57 58
3 56 58 59
3 60 61 62
3 60 62 63
3 64 65 66
3 64 66 67
3 68 69 70
3 68 70 71
3 72 73 61
3 72 61 74
3 54 53 75
3 54 75 76
3 77 78 79
3 77 79 80
3 51 50 81
3 51 81 82
3 50 49 83
3 50 83 81
3 84 85 86
3 87 88 89
3 84 86 87
3 84 87 89
3 90 91 92
3 90 92 93
3 94 95 96
3 94 96 97
3 98 99 100
3 98 100 101
3 102 103 104
3 102 104 105
3 106 107 108
3 106 108 109
3 110 111 112
3 110 112 113
3 114 115 116
3 114 116 117
3 118 119 120
3 120 121 122
3 120 122 118
3 123 124 125
3 123 125 126
3 127 128 129
3 127 129 130
3 131 132 133
3 134 135 136
3 46 45 137
3 137 138 46
3 139 140 141
3 139 141 142
3 143 144 145
3 143 145 146
3 147 148 149
3 147 149 150
3 151 102 105
3 151 105 152
3 153 154 155
3 155 156 157
3 155 157 153
3 158 159 160
3 158 160 161
3 73 72 162
3 163 164 165
3 163 165 166
3 167 168 169
3 169 170 171
3 169 171 167
3 172 173 174
3 172 174 175
3 65 176 177
3 65 177 66
3 178 179 180
3 178 180 181
3 182 183 184
3 182 184 185
3 115 186 187
3 115 187 116
3 188 189 190
3 190 191 192
3 190 192 188
3 193 194 195
3 193 195 196
3 197 81 198
3 197 198 199
3 200 201 202
3 200 202 203
3 204 158 161
3 204 161 205
3 206 207 208
3 206 208 209
3 210 211 212
3 212 213 214
3 212 214 210
3 215 216 217
3 215 217 218
3 209 208 111
3 209 111 110
3 52 55 219
3 220 221 222
3 220 222 223
3 224 225 226
3 224 226 227
3 228 229 230
3 228 230 231
3 152 62 232
3 152 232 233
3 234 58 235
3 234 235 236
3 237 238 239
3 237 239 240
3 237 240 241
3 237 241 242
3 243 244 245
3 246 247 248
3 243 245 246
3 249 250 251
3 243 246 248
3 252 253 254
3 243 248 255
3 243 255 249
3 256 257 258
3 256 258 259
3 260 261 262
3 263 264 265
3 265 266 267
3 268 269 15
3 265 267 270
3 271 263 265
3 270 272 271
3 265 270 271
3 273 274 275
3 238 237 276
3 276 277 278
3 238 276 278
3 279 280 281
3 257 256 282
3 282 283 284
3 257 282 284
3 197 285 95
3 286 287 288
3 289 290 286
3 291 292 289
3 293 294 291
3 286 288 293
3 291 289 286
3 286 293 291
3 295 64 67
3 295 67 296
3 194 60 63
3 194 63 195
3 297 298 299
3 297 299 300
3 301 94 97
3 301 97 302
3 216 303 304
3 216 304 217
3 11 10 305
3 11 305 306
3 95 285 307
3 95 307 96
3 183 2 308
3 183 308 184
3 76 75 309
3 76 309 310
3 311 136 135
3 311 135 312
3 285 197 199
3 285 199 307
3 10 178 181
3 10 181 305
3 148 215 218
3 148 218 149
3 186 182 185
3 186 185 187
3 81 83 313
3 81 313 198
3 179 127 130
3 179 130 180
3 159 76 310
3 159 310 160
3 14 13 314
3 14 314 315
3 316 147 150
3 316 150 317
3 13 143 146
3 13 146 314
3 2 98 101
3 2 101 308
3 318 319 320
3 318 320 321
3 322 295 296
3 322 296 234
3 201 193 196
3 201 196 202
3 99 297 300
3 99 300 100
3 319 56 59
3 319 59 320
3 323 324 325
3 325 326 327
3 327 328 329
3 329 323 325
3 325 327 329
3 330 331 332
3 332 333 334
3 332 334 330
3 224 227 335
3 224 335 336
3 337 338 339
3 337 339 340
3 328 341 342
3 343 344 345
3 328 342 343
3 343 345 346
3 343 346 328
3 347 348 349
3 347 349 350
3 351 352 353
3 353 354 355
3 355 356 357
3 357 358 351
3 351 353 355
3 351 355 357
3 359 360 361
3 361 362 363
3 361 363 359
3 364 365 366
3 364 366 367
3 258 257 368
3 258 368 369
3 370 371 372
3 373 374 375
3 370 372 373
3 375 376 377
3 377 370 373
3 373 375 377
3 378 379 380
3 378 380 381
3 382 383 384
3 384 385 386
3 384 386 382
3 387 378 381
3 387 381 388
3 389 347 350
3 389 350 390
3 131 316 317
3 131 317 132
3 298 311 312
3 298 312 299
3 128 301 302
3 128 302 129
3 144 204 205
3 144 205 145
3 391 392 393
3 394 395 396
3 391 393 394
3 397 398 391
3 394 396 397
3 394 397 391
3 399 400 124
3 399 124 123
3 401 402 91
3 401 91 90
3 9 51 82
3 9 82 10
3 1 77 80
3 1 80 2
3 403 404 405
3 403 405 406
3 407 408 223
3 223 222 409
3 223 409 407
3 8 48 51
3 8 51 9
3 410 411 412
3 410 412 413
3 414 337 340
3 414 340 415
3 303 318 321
3 303 321 304
3 416 228 231
3 416 231 417
3 418 200 203
3 418 203 419
3 185 304 420
3 421 422 423
3 423 424 19
3 421 423 19
3 425 426 140
3 425 140 139
3 427 428 429
3 225 224 430
3 430 431 432
3 225 430 432
3 176 114 117
3 176 117 177
3 433 434 107
3 433 107 106
3 162 72 74
3 162 74 435
3 103 68 71
3 103 71 104
3 436 0 3
3 436 3 322
3 4 437 438
3 4 438 439
3 440 441 442
3 443 444 445
3 446 447 448
3 449 450 451
3 452 453 454
3 452 454 455
3 456 457 458
3 456 458 459
3 460 461 462
3 460 462 463
3 464 465 466
3 464 466 467
3 468 469 470
3 468 470 404
3 186 471 65
3 472 473 474
3 475 476 472
3 398 477 478
3 478 475 472
3 472 474 479
3 479 398 478
3 472 479 478
3 480 481 482
3 480 482 483
3 78 77 1
3 484 485 486
3 484 486 487
3 49 48 8
3 488 489 490
3 488 490 491
3 1 0 436
3 492 493 494
3 492 494 495
